<svg xmlns="http://www.w3.org/2000/svg" xmlns:xlink="http://www.w3.org/1999/xlink" width="1024" height="128"><symbol id="icon--moon"><path d="M5.2 0C2.2.8 0 3.6 0 6.9 0 10.8 3.2 14 7.1 14c3.3 0 6-2.2 6.9-5.2C8.7 10.2 3.8 5.3 5.2 0z"/></symbol><symbol id="icon--sun"><path d="M7 0h2v2H7zm5.88 1.637l1.414 1.415-1.415 1.413-1.413-1.414zM14 7h2v2h-2zm-1.05 7.433l-1.414-1.413 1.413-1.415 1.415 1.414zM7 14h2v2H7zm-4.02.364l-1.413-1.415 1.414-1.414 1.414 1.415zM0 7h2v2H0zm3.05-5.294L4.463 3.12 3.05 4.535 1.636 3.12zM8 4C5.8 4 4 5.8 4 8s1.8 4 4 4 4-1.8 4-4-1.8-4-4-4z"/></symbol><use xlink:href="#icon--moon" fill="#656565"/><use xlink:href="#icon--sun" fill="#A3A3A3" x="60"/></svg>